# xmcd
#
# Track frame offsets:
#	150
#	26508
#	47947
#	63153
#	68345
#	87782
#	93984
#	103512
#	115363
#	149295
#	171405
#	188193
#	209919
#	222900
#	246406
#
# Disc length: 3570 seconds
#
# Revision: 0
# Processed by: cddbd v1.5.2PL0 Copyright (c) Steve Scherf et al.
# Submitted via: EasyCDDAExtractor 16.0.6.1
#
DISCID=dd0df00f
DTITLE=Χορ. κ μαντολινάτα ''Παναγής Μπαρμπάτης'' - Απόψε την κιθάρα μου 2
DYEAR=2013
DGENRE=Επτανησιακή
TTITLE0=Ωραίο λουλούδι [αταζώρτζης Δελλαπόρτας]
TTITLE1=Ουράνιο πλάσμα [Τζώρτζης Κωστής-Δημ. Πελεκάσης]
TTITLE2=Πολύ ψηλά 'κτισες φωλιά [παραδοσιακό]
TTITLE3=Αψηλό μου κυπαρίσσι [παραδοσιακό]
TTITLE4=Καλησπερίζω δυό αδελφές [παραδοσιακό]
TTITLE5=Μία μόνον ποθώ [παραδοσιακό]
TTITLE6=Κελαϊδήστε ωραία μου πουλάκια [παραδοσιακό]
TTITLE7=Νανούρισμα [Σπ. Σαμάρας-Γεώργιος Τσοκόπουλος]
TTITLE8=Είσαι το λιμάνι μου [παραδ. ζακ. νυχτωδία-σερενάτα]
TTITLE9=Αγάπησα χωρίς ν' αγαπηθώ [Σπ. Μαρκάτος-Κώστας Μένης]
TTITLE10=Εις τον αφρό της θάλασσας [παραδ. επταν. καντάδα]
TTITLE11=Η πεσαδιάννα [Χαρίλαος Χωραφάς-Αριάνδη Κούπα]
TTITLE12=Το καράβι [Σπ. Μαρκάτος-Σωτ. Γαλιατσάτος]
TTITLE13=Το παπόρο [παραδοσιακό Ζακύνθου]
TTITLE14=Απόψε την κιθάρα μου [παραδ. κεφαλ. καντάδα]
EXTD=
EXTT0=
EXTT1=
EXTT2=
EXTT3=
EXTT4=
EXTT5=
EXTT6=
EXTT7=
EXTT8=
EXTT9=
EXTT10=
EXTT11=
EXTT12=
EXTT13=
EXTT14=
PLAYORDER=
